<svg width="16" height="27" viewBox="0 0 16 27" fill="none" xmlns="http://www.w3.org/2000/svg">
<path d="M3.43125 1.36663L14.6646 12.5666C14.7979 12.7 14.8921 12.8444 14.9473 13C15.0033 13.1555 15.0312 13.3222 15.0312 13.5C15.0312 13.6777 15.0033 13.8444 14.9473 14C14.8921 14.1555 14.7979 14.3 14.6646 14.4333L3.43125 25.6666C3.12014 25.9777 2.73125 26.1333 2.26458 26.1333C1.79792 26.1333 1.39792 25.9666 1.06458 25.6333C0.731251 25.3 0.564584 24.9111 0.564584 24.4666C0.564584 24.0222 0.731251 23.6333 1.06458 23.3L10.8646 13.5L1.06458 3.69997C0.753472 3.38885 0.597917 3.00574 0.597917 2.55063C0.597917 2.09463 0.764584 1.69997 1.09792 1.36663C1.43125 1.0333 1.82014 0.866632 2.26458 0.866632C2.70903 0.866632 3.09792 1.0333 3.43125 1.36663Z" fill="#121212"/>
</svg>
